<?xml version="1.0" standalone="no"?>
<!DOCTYPE svg PUBLIC "-//W3C//DTD SVG 20010904//EN"
 "http://www.w3.org/TR/2001/REC-SVG-20010904/DTD/svg10.dtd">
<svg version="1.0" xmlns="http://www.w3.org/2000/svg"
 width="512.000000pt" height="512.000000pt" viewBox="0 0 512.000000 512.000000"
 preserveAspectRatio="xMidYMid meet">
<metadata>
Created by potrace 1.14, written by Peter Selinger 2001-2017
</metadata>
<g transform="translate(0.000000,512.000000) scale(0.100000,-0.100000)"
fill="#000000" stroke="none">
<path d="M63 4760 c-13 -5 -32 -24 -43 -42 -17 -29 -19 -46 -16 -148 2 -63 9
-140 15 -170 6 -30 14 -67 16 -82 3 -16 12 -58 21 -95 9 -38 16 -76 17 -85 1
-10 5 -18 10 -18 4 0 6 -4 3 -8 -3 -5 6 -49 20 -98 13 -49 26 -98 28 -109 9
-40 85 -283 125 -394 48 -135 101 -252 153 -339 40 -66 44 -81 29 -110 -11
-20 -48 -129 -55 -163 -3 -13 -13 -51 -22 -84 -19 -72 -18 -67 -44 -180 -12
-49 -23 -101 -25 -115 -2 -14 -6 -36 -9 -50 -3 -13 -8 -42 -11 -65 -3 -22 -10
-68 -16 -103 -5 -34 -12 -97 -15 -140 -3 -42 -5 -81 -6 -87 -3 -36 14 -180 27
-230 26 -98 68 -144 195 -211 392 -208 702 -414 849 -564 93 -95 138 -167 212
-338 8 -17 17 -32 21 -32 5 0 8 -5 8 -11 0 -21 89 -136 146 -188 47 -43 100
-80 124 -86 3 -1 21 -9 41 -18 99 -44 316 -39 442 10 99 39 178 104 422 349
203 204 358 325 543 421 37 19 72 38 77 42 9 7 157 70 285 122 103 41 505 169
576 182 10 2 26 6 34 9 8 3 51 18 95 33 86 29 206 81 215 93 3 4 18 14 34 22
74 38 162 148 188 235 33 114 28 375 -12 565 -6 25 -12 61 -15 80 -3 19 -8 43
-11 52 -6 21 -14 54 -21 93 -2 17 -10 36 -15 43 -6 6 -8 12 -5 12 6 0 -60 197
-88 264 l-17 39 41 59 c23 33 41 63 41 68 0 5 6 15 14 23 8 8 23 30 33 50 83
165 133 270 133 282 0 4 6 21 14 38 20 46 94 256 101 287 3 13 27 99 36 125
19 60 68 251 73 285 3 19 10 50 15 68 5 18 10 35 10 37 1 3 1 6 2 8 0 1 3 31
6 67 16 167 4 214 -56 230 -47 12 -104 16 -118 7 -6 -4 -14 -3 -18 3 -4 6 -10
8 -15 5 -4 -2 -36 -7 -71 -10 -35 -3 -75 -7 -89 -10 -14 -2 -43 -7 -65 -10
-41 -6 -72 -11 -115 -20 -14 -3 -50 -9 -80 -15 -57 -10 -73 -14 -150 -30 -25
-6 -56 -13 -70 -16 -14 -2 -34 -8 -45 -11 -11 -4 -27 -8 -35 -9 -75 -12 -365
-99 -515 -153 -125 -46 -121 -46 -157 -27 -104 54 -403 134 -605 161 -167 23
-452 23 -623 0 -19 -2 -55 -7 -79 -10 -25 -3 -47 -8 -50 -9 -3 -2 -26 -7 -51
-10 -25 -3 -94 -20 -155 -36 -60 -17 -117 -32 -125 -34 -59 -16 -214 -79 -222
-91 -4 -5 -8 -6 -8 -2 0 8 -141 -62 -175 -87 -18 -13 -25 -10 -85 32 -36 26
-66 50 -68 54 -2 5 -8 8 -13 8 -5 0 -37 17 -71 38 -73 44 -206 109 -327 159
-106 44 -331 124 -331 117 0 -2 -13 2 -29 10 -15 8 -39 17 -52 20 -13 2 -62
14 -109 26 -96 24 -234 34 -267 20z"/>
</g>
</svg>
