{
	"asset":{
		"generator":"Khronos glTF Blender I/O v3.5.30",
		"version":"2.0"
	},
	"extensionsUsed":[
		"KHR_lights_punctual"
	],
	"extensionsRequired":[
		"KHR_lights_punctual"
	],
	"extensions":{
		"KHR_lights_punctual":{
			"lights":[
				{
					"color":[
						1,
						1,
						1
					],
					"intensity":380459.8914611758,
					"spot":{
						"innerConeAngle":0.6037443409317689,
						"outerConeAngle":1.284562349319458
					},
					"type":"spot",
					"range":66,
					"name":"Spot"
				},
				{
					"color":[
						1,
						1,
						1
					],
					"intensity":190229.9457305879,
					"spot":{
						"innerConeAngle":0.6037443409317689,
						"outerConeAngle":1.284562349319458
					},
					"type":"spot",
					"range":66,
					"name":"Spot.001"
				}
			]
		}
	},
	"scene":0,
	"scenes":[
		{
			"name":"Scene",
			"nodes":[
				0,
				1,
				2,
				3,
				4,
				5,
				6
			]
		}
	],
	"nodes":[
		{
			"mesh":0,
			"name":"Left Wall",
			"scale":[
				0.10000000149011612,
				4,
				10
			],
			"translation":[
				-9.980420112609863,
				2,
				0.0009759366512298584
			]
		},
		{
			"mesh":1,
			"name":"Floor",
			"rotation":[
				0,
				-0.7071067094802856,
				0,
				0.7071068286895752
			],
			"scale":[
				10,
				0.10000000149011612,
				10
			],
			"translation":[
				0.019580751657485962,
				-2.049999952316284,
				0.0009749829769134521
			]
		},
		{
			"mesh":2,
			"name":"Back Wall",
			"rotation":[
				0,
				-0.7071067094802856,
				0,
				0.7071068286895752
			],
			"scale":[
				0.10000000149011612,
				4,
				10
			],
			"translation":[
				0.019580036401748657,
				2,
				-9.999024391174316
			]
		},
		{
			"mesh":3,
			"name":"Right Wall",
			"scale":[
				0.10000000149011612,
				4,
				10
			],
			"translation":[
				10.019579887390137,
				2,
				0.0009740293025970459
			]
		},
		{
			"mesh":4,
			"name":"Sphere",
			"rotation":[
				1,
				0,
				0,
				4.371138828673793e-08
			],
			"translation":[
				-0.03809547424316406,
				-0.17938566207885742,
				-5.0775651931762695
			]
		},
		{
			"extensions":{
				"KHR_lights_punctual":{
					"light":0
				}
			},
			"name":"Spot",
			"rotation":[
				-0.37085530161857605,
				-0.0356166772544384,
				-0.6020517945289612,
				0.7062092423439026
			],
			"translation":[
				8.310489654541016,
				9.111143112182617,
				9.731600761413574
			]
		},
		{
			"extensions":{
				"KHR_lights_punctual":{
					"light":1
				}
			},
			"name":"Spot.001",
			"rotation":[
				-0.3905751705169678,
				-0.7284976243972778,
				0.2771880626678467,
				0.48980510234832764
			],
			"translation":[
				-9.329496383666992,
				-0.841273307800293,
				-7.8605780601501465
			]
		}
	],
	"materials":[
		{
			"alphaMode":"BLEND",
			"name":"Side Wall Material",
			"pbrMetallicRoughness":{}
		},
		{
			"name":"Floor Material",
			"pbrMetallicRoughness":{}
		},
		{
			"name":"Back Wall Material",
			"pbrMetallicRoughness":{}
		}
	],
	"meshes":[
		{
			"name":"Cube",
			"primitives":[
				{
					"attributes":{
						"POSITION":0,
						"TEXCOORD_0":1,
						"NORMAL":2
					},
					"indices":3,
					"material":0
				}
			]
		},
		{
			"name":"Cube.001",
			"primitives":[
				{
					"attributes":{
						"POSITION":4,
						"TEXCOORD_0":5,
						"NORMAL":6
					},
					"indices":3,
					"material":1
				}
			]
		},
		{
			"name":"Cube.002",
			"primitives":[
				{
					"attributes":{
						"POSITION":7,
						"TEXCOORD_0":8,
						"NORMAL":9
					},
					"indices":3,
					"material":2
				}
			]
		},
		{
			"name":"Cube.003",
			"primitives":[
				{
					"attributes":{
						"POSITION":10,
						"TEXCOORD_0":11,
						"NORMAL":12
					},
					"indices":3,
					"material":0
				}
			]
		},
		{
			"name":"Sphere",
			"primitives":[
				{
					"attributes":{
						"POSITION":13,
						"TEXCOORD_0":14,
						"NORMAL":15
					},
					"indices":16,
					"material":0
				}
			]
		}
	],
	"accessors":[
		{
			"bufferView":0,
			"componentType":5126,
			"count":24,
			"max":[
				1,
				1,
				1
			],
			"min":[
				-1,
				-1,
				-1
			],
			"type":"VEC3"
		},
		{
			"bufferView":1,
			"componentType":5126,
			"count":24,
			"type":"VEC2"
		},
		{
			"bufferView":2,
			"componentType":5126,
			"count":24,
			"type":"VEC3"
		},
		{
			"bufferView":3,
			"componentType":5123,
			"count":36,
			"type":"SCALAR"
		},
		{
			"bufferView":4,
			"componentType":5126,
			"count":24,
			"max":[
				1,
				1,
				1
			],
			"min":[
				-1,
				-1,
				-1
			],
			"type":"VEC3"
		},
		{
			"bufferView":5,
			"componentType":5126,
			"count":24,
			"type":"VEC2"
		},
		{
			"bufferView":6,
			"componentType":5126,
			"count":24,
			"type":"VEC3"
		},
		{
			"bufferView":7,
			"componentType":5126,
			"count":24,
			"max":[
				1,
				1,
				1
			],
			"min":[
				-1,
				-1,
				-1
			],
			"type":"VEC3"
		},
		{
			"bufferView":8,
			"componentType":5126,
			"count":24,
			"type":"VEC2"
		},
		{
			"bufferView":9,
			"componentType":5126,
			"count":24,
			"type":"VEC3"
		},
		{
			"bufferView":10,
			"componentType":5126,
			"count":24,
			"max":[
				1,
				1,
				1
			],
			"min":[
				-1,
				-1,
				-1
			],
			"type":"VEC3"
		},
		{
			"bufferView":11,
			"componentType":5126,
			"count":24,
			"type":"VEC2"
		},
		{
			"bufferView":12,
			"componentType":5126,
			"count":24,
			"type":"VEC3"
		},
		{
			"bufferView":13,
			"componentType":5126,
			"count":1984,
			"max":[
				1.5882811546325684,
				1.5882816314697266,
				1.5882805585861206
			],
			"min":[
				-1.5882800817489624,
				-1.5882816314697266,
				-1.5882816314697266
			],
			"type":"VEC3"
		},
		{
			"bufferView":14,
			"componentType":5126,
			"count":1984,
			"type":"VEC2"
		},
		{
			"bufferView":15,
			"componentType":5126,
			"count":1984,
			"type":"VEC3"
		},
		{
			"bufferView":16,
			"componentType":5123,
			"count":2880,
			"type":"SCALAR"
		}
	],
	"bufferViews":[
		{
			"buffer":0,
			"byteLength":288,
			"byteOffset":0,
			"target":34962
		},
		{
			"buffer":0,
			"byteLength":192,
			"byteOffset":288,
			"target":34962
		},
		{
			"buffer":0,
			"byteLength":288,
			"byteOffset":480,
			"target":34962
		},
		{
			"buffer":0,
			"byteLength":72,
			"byteOffset":768,
			"target":34963
		},
		{
			"buffer":0,
			"byteLength":288,
			"byteOffset":840,
			"target":34962
		},
		{
			"buffer":0,
			"byteLength":192,
			"byteOffset":1128,
			"target":34962
		},
		{
			"buffer":0,
			"byteLength":288,
			"byteOffset":1320,
			"target":34962
		},
		{
			"buffer":0,
			"byteLength":288,
			"byteOffset":1608,
			"target":34962
		},
		{
			"buffer":0,
			"byteLength":192,
			"byteOffset":1896,
			"target":34962
		},
		{
			"buffer":0,
			"byteLength":288,
			"byteOffset":2088,
			"target":34962
		},
		{
			"buffer":0,
			"byteLength":288,
			"byteOffset":2376,
			"target":34962
		},
		{
			"buffer":0,
			"byteLength":192,
			"byteOffset":2664,
			"target":34962
		},
		{
			"buffer":0,
			"byteLength":288,
			"byteOffset":2856,
			"target":34962
		},
		{
			"buffer":0,
			"byteLength":23808,
			"byteOffset":3144,
			"target":34962
		},
		{
			"buffer":0,
			"byteLength":15872,
			"byteOffset":26952,
			"target":34962
		},
		{
			"buffer":0,
			"byteLength":23808,
			"byteOffset":42824,
			"target":34962
		},
		{
			"buffer":0,
			"byteLength":5760,
			"byteOffset":66632,
			"target":34963
		}
	],
	"buffers":[
		{
			"byteLength":72392,
			"uri":"data:application/octet-stream;base64,"
		}
	]
}
