<svg xmlns="http://www.w3.org/2000/svg" viewBox="0 0 139.09 119.77"><defs><style>.cls-1{fill:#fff;}</style></defs><g id="Layer_2" data-name="Layer 2"><g id="Layer_4" data-name="Layer 4"><path d="M37.35,14.67,13.78,46.33q-4.49-7-8.49-21.57Q1,9.17,3,3.43,7.54.34,21.17,5.83q11.74,4.74,16.18,8.84"/><path d="M132.93,25.51Q128,40.73,122.3,47.88L90.64,14.27Q100.53,9,116.9,5.63t19.73-1q1.2,5.94-3.7,20.93"/><path d="M89.44,9.58a24.81,24.81,0,0,1,5.94,2.74l7.69,6.25A86,86,0,0,1,114,30.2a61.07,61.07,0,0,1,11,21.72,84.26,84.26,0,0,1,3.5,21.43q.25,8.09-6.44,11.38a34.4,34.4,0,0,1-7.09,2.4l-8.49,2.05A88.35,88.35,0,0,0,90.24,96q-10.63,5.49-14.68,9.84a95.14,95.14,0,0,1-9.29,9.09q-5.79,4.34-11.84,3.44A14.18,14.18,0,0,1,46,114.4q-2.25-2.25-6-8.89-4.39-7.89-10.29-11.74-9.14-5-17.48-10.58Q6.9,79.59,9,63.91A83.52,83.52,0,0,1,20.62,31.7a66.86,66.86,0,0,1,8.24-10.09q5.6-5.68,9.44-7.59Q57.58,4.69,77.05,6.83A57.24,57.24,0,0,1,89.44,9.58"/><path d="M17.23,3.28q14.43,5,21.17,11.09l-1.7,1Q30.87,10,17.63,5.78,4.79,1.68,3.55,4,1.95,7,5.44,21.36q3.7,15.29,8.89,23.37l-1.15,1.6Q8,40,3.2,21.66-1.6,3.58.8.84q2.25-2.5,16.43,2.44"/><path d="M97.78,11.22l-3.3,1.15A64.39,64.39,0,0,0,64.17,7.63,62,62,0,0,0,33.71,18.12c-1.4.93-2.2,1.19-2.4.8s.47-1.19,2-2.25A61.27,61.27,0,0,1,64,5.63a65,65,0,0,1,33.81,5.59"/><path d="M138.43,2.69q2.1,2.09-2.4,18.12-4.84,17.54-12.28,26.82l-1-2.05q6-7.53,10.63-23.62,4.35-15.14,2.4-16.48-2.25-1.59-16.58,1.1a137.67,137.67,0,0,0-28.11,8.24c-2,.83-2.93,1-2.9.4s.73-1.15,2-1.75q12.08-5.94,29.46-9.54Q136.19.5,138.43,2.69"/><path d="M131.14,9.68c2.23-1.14,3.59-1.65,4.09-1.55s-.46.88-3,2.35a49.05,49.05,0,0,0-9.49,7.39A38.26,38.26,0,0,0,115.66,27a3.66,3.66,0,0,0-.6,1.69,2.56,2.56,0,0,0,.55,1.4q14,19.87,14.78,41.6.3,6.5-3,10.09-3.69,4-13.48,6.64-14.73,4-23.67,8.54A55.93,55.93,0,0,0,74.76,108.4q-6.9,7.35-10.39,9.39a17.66,17.66,0,0,1-9.74,1.95q-9.39-.45-14.58-12.88-1.84-4.39-7.14-8.79-7-5.75-22.17-13.79a6.85,6.85,0,0,1-3.15-3.59,19.06,19.06,0,0,1-1-6.44,69.25,69.25,0,0,1,1.7-14,97.71,97.71,0,0,1,4.29-15.38,52.07,52.07,0,0,1,2.8-5.94c1.37-2.5,2.8-4.84,4.3-7a4.72,4.72,0,0,0,.89-1.8A4.42,4.42,0,0,0,20,28a54,54,0,0,0-7.65-12.28A57.53,57.53,0,0,0,4.09,6.83C1.9,5,1.07,4.07,1.6,3.93s2.05.8,4.54,2.8A53.66,53.66,0,0,1,21.27,26.61a12.41,12.41,0,0,1,1.15,3.19,5.21,5.21,0,0,1-1.15,2.75,66.12,66.12,0,0,0-6.79,13,83.29,83.29,0,0,0-4,14.88,59.09,59.09,0,0,0-1,13.64,17.19,17.19,0,0,0,.9,5.49,6.21,6.21,0,0,0,2.94,3q14,7.78,20.08,12.73a29.63,29.63,0,0,1,8.29,10.14A30.89,30.89,0,0,0,47,114a12,12,0,0,0,7.54,3.49,15.6,15.6,0,0,0,8.94-1.5q3.84-2.09,9.89-9.13,6.89-8,21.32-14.09A176.55,176.55,0,0,1,115,86.08q7.08-2,10-5.64a12.58,12.58,0,0,0,2.45-8.79A74,74,0,0,0,114.41,31.7a6.13,6.13,0,0,1-1.35-2.9A11.2,11.2,0,0,1,114.71,25a38.53,38.53,0,0,1,7.49-8.94,40.38,40.38,0,0,1,8.94-6.39"/><path class="cls-1" d="M24,72.5q-3-2.44-2.85-3.1t3.35,1.4q11,7,14.73,17c.63,1.6.75,2.43.35,2.5s-1-.7-1.9-2.2A57.53,57.53,0,0,0,24,72.5"/><path class="cls-1" d="M79,78.64a50.87,50.87,0,0,0-6.19,9.09c-1,1.86-1.67,2.63-2,2.3s-.1-1.47.7-3.4A35.88,35.88,0,0,1,77.7,76.54a40.64,40.64,0,0,1,9-7.64c3.63-2.26,5.59-3.13,5.89-2.59s-1.31,2-4.84,4.39A44.33,44.33,0,0,0,79,78.64"/><path class="cls-1" d="M47.34,108.5c0-.5,0-.76.15-.8l.7.5a5.25,5.25,0,0,1,1.25,2.65c.06.5-.08.75-.45.75a1,1,0,0,1-.9-.45,5.29,5.29,0,0,1-.75-2.65"/><path class="cls-1" d="M62.47,108.5c.63-.73,1.07-1,1.3-1s.22.59,0,1.45a6.66,6.66,0,0,1-.85,2.25c-.36.57-.78.8-1.25.7s-.63-.42-.5-1a6,6,0,0,1,1.25-2.4"/></g></g></svg>